<svg width="46" height="46" viewBox="0 0 46 46" fill="none" xmlns="http://www.w3.org/2000/svg">
<rect width="46" height="46" rx="6" fill="#E6A525" fill-opacity="0.5"/>
<path d="M9.66659 23.0001C9.66659 15.6361 15.6359 9.66675 22.9999 9.66675C30.3639 9.66675 36.3333 15.6361 36.3333 23.0001C36.3333 30.3641 30.3639 36.3334 22.9999 36.3334C20.6999 36.3334 18.5346 35.7507 16.6446 34.7241L11.1533 36.2854C10.2739 36.5354 9.46193 35.7227 9.71193 34.8441L11.2733 29.3521C10.2151 27.4024 9.66266 25.2184 9.66659 23.0001ZM17.6666 20.5001C17.6666 20.9601 18.0399 21.3334 18.4999 21.3334H27.4999C27.6094 21.3334 27.7177 21.3119 27.8188 21.27C27.9199 21.2281 28.0118 21.1667 28.0892 21.0893C28.1666 21.012 28.2279 20.9201 28.2698 20.819C28.3117 20.7179 28.3333 20.6095 28.3333 20.5001C28.3333 20.3906 28.3117 20.2823 28.2698 20.1812C28.2279 20.0801 28.1666 19.9882 28.0892 19.9108C28.0118 19.8334 27.9199 19.7721 27.8188 19.7302C27.7177 19.6883 27.6094 19.6667 27.4999 19.6667H18.4999C18.0399 19.6667 17.6666 20.0401 17.6666 20.5001ZM18.4999 24.6667C18.2789 24.6667 18.067 24.7545 17.9107 24.9108C17.7544 25.0671 17.6666 25.2791 17.6666 25.5001C17.6666 25.7211 17.7544 25.9331 17.9107 26.0893C18.067 26.2456 18.2789 26.3334 18.4999 26.3334H24.8333C25.0543 26.3334 25.2662 26.2456 25.4225 26.0893C25.5788 25.9331 25.6666 25.7211 25.6666 25.5001C25.6666 25.2791 25.5788 25.0671 25.4225 24.9108C25.2662 24.7545 25.0543 24.6667 24.8333 24.6667H18.4999Z" fill="#5C4008"/>
</svg>
