<svg width="18" height="16" viewBox="0 0 18 16" fill="none" xmlns="http://www.w3.org/2000/svg">
<g clip-path="url(#clip0_38_2376)">
<path d="M1.03151 16.0001C0.977335 15.9999 0.925132 15.9797 0.884906 15.9434C0.844679 15.9071 0.819257 15.8573 0.813512 15.8034L0.000178385 7.5574L-0.000488281 7.53673C-0.000488281 7.4154 0.0975117 7.3174 0.218845 7.3174H5.70751V16.0007L1.03151 16.0001ZM3.27151 13.8234C3.27151 13.9949 3.32238 14.1633 3.41768 14.3059C3.51299 14.4486 3.64845 14.5597 3.80693 14.6254C3.96542 14.691 4.13981 14.7082 4.30805 14.6747C4.4763 14.6413 4.63084 14.5587 4.75214 14.4374C4.87344 14.3161 4.95605 14.1615 4.98951 13.9933C5.02298 13.825 5.0058 13.6506 4.94016 13.4922C4.87451 13.3337 4.76334 13.1982 4.62071 13.1029C4.47808 13.0076 4.31039 12.9567 4.13884 12.9567H4.13751C3.65818 12.9567 3.27018 13.3447 3.26951 13.8241L3.27151 13.8234ZM3.59151 8.49007C3.59151 8.61073 3.68951 8.70873 3.81084 8.70873H4.32018C4.37817 8.70873 4.43379 8.68569 4.4748 8.64469C4.51581 8.60368 4.53884 8.54806 4.53884 8.49007C4.53884 8.43207 4.51581 8.37645 4.4748 8.33545C4.43379 8.29444 4.37817 8.2714 4.32018 8.2714H3.80684C3.74873 8.27157 3.69304 8.29474 3.65195 8.33583C3.61085 8.37693 3.58769 8.43262 3.58751 8.49073V8.49273L3.59151 8.49007ZM1.18484 8.49007C1.18484 8.61073 1.28284 8.70873 1.40351 8.70873H3.07351C3.13151 8.70873 3.18712 8.68569 3.22813 8.64469C3.26914 8.60368 3.29218 8.54806 3.29218 8.49007C3.29218 8.43207 3.26914 8.37645 3.22813 8.33545C3.18712 8.29444 3.13151 8.2714 3.07351 8.2714H1.39951C1.34163 8.27175 1.28621 8.2949 1.24528 8.33583C1.20435 8.37676 1.18119 8.43218 1.18085 8.49007V8.49207L1.18484 8.49007ZM7.71818 14.7487C7.60074 14.7089 7.48978 14.6521 7.38884 14.5801L7.39284 14.5827L7.32618 14.5407C7.17089 14.4433 7.01752 14.3428 6.86618 14.2394L6.79884 14.1921C6.71084 14.1287 6.66951 14.1007 6.62418 14.1034L6.14418 14.1101V8.00673L6.13551 7.4934C6.43618 7.30207 6.71351 7.12007 6.79684 7.05073C6.91018 6.82273 7.02218 6.63207 7.14618 6.4494L7.13484 6.4674C7.19262 6.37851 7.24773 6.29051 7.30018 6.2034L8.44951 4.27407C8.50373 4.1834 8.56018 4.09273 8.61884 4.00207C8.71551 3.85807 8.81818 3.68607 8.91218 3.50873L8.92818 3.47607C8.97999 3.36814 8.99834 3.24717 8.98084 3.12873L8.98151 3.13207L8.97751 1.05207C9.01951 0.749399 9.19018 0.493399 9.43084 0.337399L9.43484 0.334732C9.6494 0.141481 9.92167 0.0243277 10.2095 0.00139909H10.2142L10.2562 0.000732422C10.4835 0.000732422 10.6982 0.0547324 10.8888 0.150066L10.8808 0.146066C11.0082 0.207399 11.1168 0.272732 11.2188 0.346066L11.2122 0.341399L11.2828 0.388066C11.4435 0.472732 11.5635 0.615399 11.6168 0.788066L11.6182 0.792732C11.7428 1.25673 11.8568 1.67873 11.9628 2.10207L12.0068 2.27473C12.0742 2.5014 12.1322 2.7754 12.1695 3.05607L12.1728 3.08407C12.0588 4.1334 11.8395 5.09073 11.5222 6.00273L11.5502 5.91073L16.6788 5.9034H16.6975C16.8529 5.90341 17.0065 5.93648 17.1481 6.00041C17.2897 6.06434 17.4161 6.15766 17.5189 6.27418C17.6216 6.3907 17.6984 6.52776 17.7442 6.67624C17.7899 6.82473 17.8036 6.98124 17.7842 7.1354L17.7848 7.13007C17.7993 7.36299 17.7518 7.5956 17.6471 7.80418C17.5424 8.01275 17.3843 8.18984 17.1888 8.3174L17.1835 8.32073C17.3706 8.59425 17.4582 8.92373 17.4315 9.25407V9.2494C17.4547 9.51113 17.3936 9.77341 17.2573 9.99802C17.1209 10.2226 16.9164 10.3978 16.6735 10.4981L16.6655 10.5007C16.8138 10.7669 16.8829 11.0699 16.8648 11.3741V11.3701C16.8797 11.598 16.8327 11.8257 16.7287 12.0291C16.6247 12.2325 16.4677 12.404 16.2742 12.5254L16.2688 12.5287C16.4047 12.8338 16.4563 13.1697 16.4182 13.5014L16.4188 13.4927V13.6181C16.4093 13.7823 16.3667 13.9429 16.2936 14.0902C16.2206 14.2376 16.1185 14.3687 15.9936 14.4757C15.8687 14.5827 15.7235 14.6633 15.5666 14.7129C15.4098 14.7625 15.2446 14.7799 15.0808 14.7641L15.0855 14.7647H12.1328L12.1228 14.7654L12.1122 14.7647H12.1128H8.17284C8.13884 14.7647 8.10351 14.7647 8.06618 14.7701C8.02084 14.7727 7.97285 14.7767 7.92351 14.7767H7.91351C7.84616 14.777 7.77908 14.7681 7.71418 14.7501L7.71951 14.7514L7.71818 14.7487ZM3.70818 13.8241C3.70822 13.768 3.71931 13.7125 3.74081 13.6607C3.76231 13.6089 3.7938 13.5618 3.83348 13.5222C3.87316 13.4826 3.92026 13.4512 3.97208 13.4298C4.0239 13.4084 4.07944 13.3974 4.13551 13.3974C4.19159 13.3974 4.2471 13.4085 4.29889 13.43C4.35068 13.4515 4.39773 13.483 4.43735 13.5227C4.47697 13.5624 4.50838 13.6095 4.5298 13.6613C4.55122 13.7131 4.56222 13.7687 4.56218 13.8247C4.56209 13.938 4.51702 14.0466 4.43688 14.1266C4.35674 14.2066 4.24809 14.2515 4.13484 14.2514C4.0216 14.2513 3.91302 14.2062 3.83301 14.1261C3.75299 14.046 3.70809 13.9373 3.70818 13.8241Z" fill="white"/>
</g>
<defs>
<clipPath id="clip0_38_2376">
<rect width="18" height="16" fill="white"/>
</clipPath>
</defs>
</svg>
