<svg width="24" height="24" viewBox="0 0 24 24" fill="none" xmlns="http://www.w3.org/2000/svg">
<path d="M2.15 4.31797L1.696 4.32097C1.546 4.32597 1.393 4.33397 1.244 4.36097C1.01882 4.39655 0.805306 4.48509 0.621024 4.61931C0.436743 4.75352 0.286961 4.92957 0.184 5.13297C0.114 5.27097 0.07 5.41097 0.044 5.56297C0.016 5.71097 0.007 5.86297 0.004 6.01297L0 6.22197V17.779C0 17.8483 0.001 17.9173 0.003 17.986C0.007 18.136 0.016 18.289 0.043 18.438C0.069 18.5873 0.116333 18.7303 0.185 18.867C0.323121 19.1383 0.543681 19.3588 0.815 19.497C0.953 19.567 1.093 19.612 1.245 19.639C1.393 19.666 1.545 19.675 1.695 19.679L1.903 19.682H22.097L22.304 19.679C22.454 19.675 22.607 19.666 22.756 19.639C22.905 19.612 23.047 19.568 23.184 19.498C23.4563 19.3603 23.6774 19.1392 23.815 18.867C23.885 18.729 23.93 18.589 23.956 18.437C23.983 18.289 23.992 18.137 23.996 17.987C23.998 17.9176 23.999 17.8483 23.999 17.779L24 17.533V6.22097C24 6.15163 23.9987 6.08263 23.996 6.01397C23.9941 5.86251 23.9807 5.71141 23.956 5.56197C23.9076 5.26107 23.7656 4.98307 23.5502 4.76748C23.3347 4.55188 23.0569 4.40964 22.756 4.36097C22.6066 4.33624 22.4555 4.32287 22.304 4.32097C22.153 4.31686 22.002 4.31586 21.851 4.31797H2.15ZM2.15 4.82997H22.092C22.1573 4.82997 22.223 4.83097 22.289 4.83297C22.404 4.83697 22.539 4.84297 22.664 4.86497C22.773 4.88497 22.864 4.91497 22.951 4.95897C23.1263 5.04818 23.2688 5.19068 23.358 5.36597C23.4038 5.45664 23.4355 5.55375 23.452 5.65397C23.474 5.77697 23.48 5.91197 23.483 6.02797C23.485 6.09263 23.486 6.1583 23.486 6.22497V17.777C23.486 17.8416 23.485 17.907 23.483 17.973C23.48 18.088 23.474 18.223 23.451 18.348C23.4291 18.495 23.3723 18.6347 23.2853 18.7553C23.1983 18.8759 23.0837 18.9738 22.951 19.041C22.861 19.0866 22.7645 19.1182 22.665 19.135C22.5415 19.1534 22.4169 19.1641 22.292 19.167L22.092 19.17H1.906C1.83933 19.17 1.774 19.169 1.71 19.167C1.58445 19.1642 1.45921 19.1535 1.335 19.135C1.226 19.115 1.135 19.085 1.047 19.041C0.870812 18.9533 0.7282 18.8104 0.641 18.634C0.595222 18.5433 0.563525 18.4462 0.547 18.346C0.527026 18.2226 0.516329 18.0979 0.515 17.973L0.513 17.776V6.22397L0.515 6.02697C0.519 5.91297 0.525 5.77897 0.547 5.65197C0.567 5.54397 0.597 5.45297 0.641 5.36497C0.730384 5.19005 0.87286 5.04792 1.048 4.95897C1.13836 4.91329 1.23513 4.88159 1.335 4.86497C1.46 4.84297 1.595 4.83597 1.71 4.83297L1.906 4.82997H2.15ZM6.86 8.52997C6.56 8.54597 6.192 8.72897 5.98 8.98597C5.789 9.20597 5.62 9.56597 5.664 9.90397C6.002 9.93397 6.339 9.73497 6.552 9.48597C6.757 9.22797 6.897 8.88297 6.86 8.53097V8.52997ZM9.067 8.94997V14.443H9.919V12.566H11.099C12.177 12.566 12.934 11.827 12.934 10.754C12.934 9.68397 12.192 8.94897 11.126 8.94897L9.067 8.94997ZM9.919 9.66897H10.901C11.64 9.66897 12.062 10.065 12.062 10.758C12.062 11.45 11.64 11.85 10.898 11.85H9.919V9.66897ZM6.765 9.96897C6.315 9.97897 5.935 10.249 5.715 10.249C5.48 10.249 5.122 9.98497 4.734 9.99197C4.4817 9.99866 4.23551 10.0711 4.01979 10.2021C3.80407 10.3331 3.62628 10.5182 3.504 10.739C2.977 11.647 3.365 12.994 3.878 13.734C4.127 14.1 4.427 14.503 4.822 14.488C5.195 14.474 5.342 14.246 5.795 14.246C6.249 14.246 6.381 14.488 6.775 14.481C7.185 14.474 7.442 14.115 7.69 13.748C7.976 13.331 8.093 12.928 8.1 12.907C8.093 12.899 7.31 12.599 7.303 11.698C7.295 10.944 7.918 10.585 7.947 10.563C7.595 10.043 7.047 9.98497 6.857 9.96997L6.765 9.96897ZM14.969 10.366C13.979 10.366 13.363 10.899 13.317 11.622H14.094C14.166 11.264 14.463 11.036 14.939 11.036C15.441 11.036 15.742 11.302 15.742 11.747V12.056L14.645 12.12C13.694 12.174 13.157 12.604 13.157 13.304C13.157 14.024 13.705 14.511 14.489 14.511C15.015 14.511 15.521 14.23 15.753 13.784H15.772V14.443H16.56V11.683C16.56 10.88 15.94 10.366 14.969 10.366ZM16.909 10.438L18.355 14.447C18.355 14.45 18.282 14.687 18.282 14.694C18.157 15.104 17.952 15.265 17.571 15.265C17.502 15.265 17.365 15.265 17.304 15.25V15.916C17.364 15.927 17.571 15.935 17.639 15.935C18.469 15.935 18.865 15.623 19.207 14.652L20.707 10.438H19.839L18.827 13.697H18.812L17.799 10.437L16.909 10.438ZM15.742 12.627V12.943C15.742 13.464 15.292 13.86 14.718 13.86C14.276 13.86 13.987 13.632 13.987 13.281C13.987 12.939 14.265 12.721 14.756 12.688L15.742 12.627Z" fill="black"/>
</svg>
