<svg width="18" height="18" viewBox="0 0 18 18" fill="none" xmlns="http://www.w3.org/2000/svg">
<g clip-path="url(#clip0_18_645)">
<path d="M12.75 16.5V12C12.75 10.5855 12.75 9.879 12.3105 9.4395C11.871 9 11.1645 9 9.75 9H8.25C6.8355 9 6.129 9 5.6895 9.4395C5.25 9.879 5.25 10.5855 5.25 12V16.5" stroke="#9B9B9B" stroke-width="1.5"/>
<path opacity="0.5" d="M15.75 16.5V5.82901C15.75 4.82401 15.75 4.32076 15.483 3.93526C15.216 3.54976 14.745 3.37276 13.803 3.02026C11.9617 2.32951 11.0415 1.98451 10.3958 2.43151C9.75 2.88001 9.75 3.86251 9.75 5.82901V9.00001" stroke="#9B9B9B" stroke-width="1.5"/>
<path opacity="0.5" d="M2.4375 6C2.4375 6.14918 2.49677 6.29226 2.60226 6.39775C2.70774 6.50324 2.85082 6.5625 3 6.5625C3.14919 6.5625 3.29226 6.50324 3.39775 6.39775C3.50324 6.29226 3.5625 6.14918 3.5625 6H2.4375ZM6.9375 6C6.9375 6.14918 6.99677 6.29226 7.10226 6.39775C7.20775 6.50324 7.35082 6.5625 7.5 6.5625C7.64919 6.5625 7.79226 6.50324 7.89775 6.39775C8.00324 6.29226 8.0625 6.14918 8.0625 6H6.9375ZM4.6875 3C4.6875 3.14918 4.74677 3.29226 4.85226 3.39775C4.95774 3.50324 5.10082 3.5625 5.25 3.5625C5.39919 3.5625 5.54226 3.50324 5.64775 3.39775C5.75324 3.29226 5.8125 3.14918 5.8125 3H4.6875ZM5.8125 1.5C5.8125 1.35082 5.75324 1.20774 5.64775 1.10225C5.54226 0.996763 5.39919 0.9375 5.25 0.9375C5.10082 0.9375 4.95774 0.996763 4.85226 1.10225C4.74677 1.20774 4.6875 1.35082 4.6875 1.5H5.8125ZM2.8125 16.5V9H1.6875V16.5H2.8125ZM5.25 6.5625C5.973 6.5625 6.459 6.564 6.82125 6.61275C7.167 6.65925 7.3155 6.7395 7.413 6.83775L8.208 6.04125C7.86675 5.7 7.4415 5.56125 6.9705 5.4975C6.516 5.436 5.9415 5.4375 5.25 5.4375V6.5625ZM8.8125 9C8.8125 8.3085 8.814 7.734 8.7525 7.2795C8.6895 6.8085 8.55 6.3825 8.208 6.04125L7.413 6.83775C7.5105 6.93525 7.59075 7.083 7.638 7.4295C7.686 7.791 7.6875 8.277 7.6875 9H8.8125ZM5.25 5.4375C4.5585 5.4375 3.984 5.436 3.5295 5.4975C3.0585 5.5605 2.63325 5.7 2.292 6.04125L3.087 6.837C3.1845 6.7395 3.333 6.65925 3.6795 6.612C4.041 6.564 4.527 6.5625 5.25 6.5625V5.4375ZM2.8125 9C2.8125 8.277 2.814 7.791 2.86275 7.42875C2.90925 7.083 2.98875 6.9345 3.087 6.837L2.29125 6.042C1.95 6.38325 1.81125 6.8085 1.7475 7.2795C1.686 7.734 1.6875 8.3085 1.6875 9H2.8125ZM3.5625 6V4.875H2.4375V6H3.5625ZM4.5 3.9375H6V2.8125H4.5V3.9375ZM6.9375 4.875V6H8.0625V4.875H6.9375ZM6 3.9375C6.36975 3.9375 6.59025 3.939 6.74775 3.96C6.79398 3.96473 6.83938 3.97557 6.88275 3.99225L7.67775 3.19725C7.446 2.96475 7.16475 2.88075 6.89775 2.84475C6.64725 2.811 6.3375 2.8125 6 2.8125V3.9375ZM8.0625 4.875C8.0625 4.5375 8.064 4.22775 8.03025 3.97725C7.99425 3.71025 7.91025 3.429 7.67775 3.19725L6.88275 3.99225L6.8835 3.9945L6.88725 4.002C6.894 4.0185 6.90525 4.0545 6.915 4.12725C6.936 4.28475 6.9375 4.50525 6.9375 4.875H8.0625ZM3.5625 4.875C3.5625 4.50525 3.564 4.28475 3.585 4.12725C3.58973 4.08102 3.60058 4.03562 3.61725 3.99225L2.82225 3.19725C2.58975 3.429 2.50575 3.71025 2.46975 3.97725C2.436 4.22775 2.4375 4.5375 2.4375 4.875H3.5625ZM4.5 2.8125C4.1625 2.8125 3.85275 2.811 3.60225 2.84475C3.33525 2.88075 3.054 2.96475 2.82225 3.19725L3.61725 3.99225L3.6195 3.9915L3.627 3.98775C3.66746 3.97341 3.70953 3.9641 3.75225 3.96C3.90975 3.939 4.13025 3.9375 4.5 3.9375V2.8125ZM5.8125 3V1.5H4.6875V3H5.8125Z" fill="#9B9B9B"/>
<path d="M16.5 16.5H1.5" stroke="#9B9B9B" stroke-width="1.5" stroke-linecap="round"/>
<path opacity="0.5" d="M7.5 11.25H10.5M7.5 13.5H10.5" stroke="#9B9B9B" stroke-width="1.5" stroke-linecap="round"/>
</g>
<defs>
<clipPath id="clip0_18_645">
<rect width="18" height="18" fill="white"/>
</clipPath>
</defs>
</svg>
