<svg width="32" height="32" viewBox="0 0 32 32" fill="none" xmlns="http://www.w3.org/2000/svg">
<path d="M17 27V21H21L16 15L11 21H15V27H10V26.95C9.832 26.96 9.672 27 9.5 27C7.51088 27 5.60322 26.2098 4.1967 24.8033C2.79018 23.3968 2 21.4891 2 19.5C2 15.652 4.91 12.516 8.644 12.086C8.97139 10.3746 9.8849 8.83075 11.2274 7.72001C12.5699 6.60928 14.2576 6.00107 16 6C17.7427 6.00096 19.4306 6.60909 20.7734 7.71981C22.1163 8.83052 23.0302 10.3744 23.358 12.086C27.092 12.516 29.998 15.652 29.998 19.5C29.998 21.4891 29.2078 23.3968 27.8013 24.8033C26.3948 26.2098 24.4871 27 22.498 27C22.33 27 22.168 26.96 21.998 26.95V27H17Z" fill="#9B9B9B"/>
</svg>
