<svg width="16" height="16" viewBox="0 0 16 16" fill="none" xmlns="http://www.w3.org/2000/svg">
<g clip-path="url(#clip0_16_280)">
<path opacity="0.5" d="M2.18325 10.1973C1.61659 9.46132 1.33325 9.09266 1.33325 7.99999C1.33325 6.90666 1.61659 6.53932 2.18325 5.80266C3.31459 4.33332 5.21192 2.66666 7.99992 2.66666C10.7879 2.66666 12.6853 4.33332 13.8166 5.80266C14.3833 6.53999 14.6666 6.90732 14.6666 7.99999C14.6666 9.09332 14.3833 9.46066 13.8166 10.1973C12.6853 11.6667 10.7879 13.3333 7.99992 13.3333C5.21192 13.3333 3.31459 11.6667 2.18325 10.1973Z" stroke="#9B9B9B" stroke-width="1.5"/>
<path d="M10 8C10 8.53043 9.78929 9.03914 9.41421 9.41421C9.03914 9.78929 8.53043 10 8 10C7.46957 10 6.96086 9.78929 6.58579 9.41421C6.21071 9.03914 6 8.53043 6 8C6 7.46957 6.21071 6.96086 6.58579 6.58579C6.96086 6.21071 7.46957 6 8 6C8.53043 6 9.03914 6.21071 9.41421 6.58579C9.78929 6.96086 10 7.46957 10 8Z" stroke="#9B9B9B" stroke-width="1.5"/>
</g>
<defs>
<clipPath id="clip0_16_280">
<rect width="16" height="16" fill="white"/>
</clipPath>
</defs>
</svg>
