<svg width="18" height="18" viewBox="0 0 18 18" fill="none" xmlns="http://www.w3.org/2000/svg">
<path d="M1.5 12C1.5 9.879 1.5 8.81775 2.15925 8.15925C2.81775 7.5 3.879 7.5 6 7.5H12C14.121 7.5 15.1823 7.5 15.8408 8.15925C16.5 8.81775 16.5 9.879 16.5 12C16.5 14.121 16.5 15.1823 15.8408 15.8408C15.1823 16.5 14.121 16.5 12 16.5H6C3.879 16.5 2.81775 16.5 2.15925 15.8408C1.5 15.1823 1.5 14.121 1.5 12Z" stroke="#9B9B9B" stroke-width="1.5"/>
<path opacity="0.5" d="M4.5 7.5V6C4.5 4.80653 4.97411 3.66193 5.81802 2.81802C6.66193 1.97411 7.80653 1.5 9 1.5C10.1935 1.5 11.3381 1.97411 12.182 2.81802C13.0259 3.66193 13.5 4.80653 13.5 6V7.5" stroke="#9B9B9B" stroke-width="1.5" stroke-linecap="round"/>
<path opacity="0.5" d="M6.75 12C6.75 12.1989 6.67098 12.3897 6.53033 12.5303C6.38968 12.671 6.19891 12.75 6 12.75C5.80109 12.75 5.61032 12.671 5.46967 12.5303C5.32902 12.3897 5.25 12.1989 5.25 12C5.25 11.8011 5.32902 11.6103 5.46967 11.4697C5.61032 11.329 5.80109 11.25 6 11.25C6.19891 11.25 6.38968 11.329 6.53033 11.4697C6.67098 11.6103 6.75 11.8011 6.75 12ZM9.75 12C9.75 12.1989 9.67098 12.3897 9.53033 12.5303C9.38968 12.671 9.19891 12.75 9 12.75C8.80109 12.75 8.61032 12.671 8.46967 12.5303C8.32902 12.3897 8.25 12.1989 8.25 12C8.25 11.8011 8.32902 11.6103 8.46967 11.4697C8.61032 11.329 8.80109 11.25 9 11.25C9.19891 11.25 9.38968 11.329 9.53033 11.4697C9.67098 11.6103 9.75 11.8011 9.75 12ZM12.75 12C12.75 12.1989 12.671 12.3897 12.5303 12.5303C12.3897 12.671 12.1989 12.75 12 12.75C11.8011 12.75 11.6103 12.671 11.4697 12.5303C11.329 12.3897 11.25 12.1989 11.25 12C11.25 11.8011 11.329 11.6103 11.4697 11.4697C11.6103 11.329 11.8011 11.25 12 11.25C12.1989 11.25 12.3897 11.329 12.5303 11.4697C12.671 11.6103 12.75 11.8011 12.75 12Z" fill="#9B9B9B"/>
</svg>
