<svg width="18" height="18" viewBox="0 0 18 18" fill="none" xmlns="http://www.w3.org/2000/svg">
<path d="M10.0305 5.31224L12.8137 2.52974L12.4852 2.20424C12.0607 1.77974 11.319 1.77974 10.8945 2.20424L9.705 3.39374C9.492 3.60674 9.375 3.88949 9.375 4.18949C9.375 4.48949 9.492 4.77224 9.7035 4.98449L10.0305 5.31224ZM4.9845 9.70424C4.56 9.27974 3.81825 9.27974 3.39375 9.70424L2.20425 10.8937C1.992 11.1067 1.875 11.3895 1.875 11.6895C1.875 11.9895 1.992 12.2722 2.20575 12.486L2.5335 12.81L5.31075 10.0327L4.9845 9.70424ZM13.8278 3.54674L13.5623 3.28124L10.7812 6.06224L11.2687 6.54899C11.3037 6.58382 11.3314 6.62521 11.3503 6.67076C11.3692 6.71632 11.3789 6.76516 11.3789 6.81449C11.3789 6.86382 11.3692 6.91266 11.3503 6.95821C11.3314 7.00377 11.3037 7.04516 11.2687 7.07999L7.07925 11.2695C7.00773 11.3375 6.91281 11.3754 6.81413 11.3754C6.71544 11.3754 6.62052 11.3375 6.549 11.2695L6.0615 10.782L3.285 13.5645L3.5505 13.83C3.7455 14.025 4.485 14.6587 5.8425 14.6587C7.0545 14.6587 9.0345 14.1247 11.58 11.58C16.6597 6.49874 13.9485 3.66749 13.8278 3.54674Z" fill="#9B9B9B"/>
</svg>
