<svg width="18" height="18" viewBox="0 0 18 18" fill="none" xmlns="http://www.w3.org/2000/svg">
<path opacity="0.3" d="M9 3C6.93 3 5.25 4.68 5.25 6.75C5.25 8.8875 7.44 12.1575 9 14.16C10.5825 12.1425 12.75 8.91 12.75 6.75C12.75 4.68 11.07 3 9 3ZM9 8.625C8.50272 8.625 8.02581 8.42746 7.67417 8.07583C7.32254 7.7242 7.125 7.24728 7.125 6.75C7.125 6.25272 7.32254 5.77581 7.67417 5.42418C8.02581 5.07254 8.50272 4.875 9 4.875C9.49728 4.875 9.97419 5.07254 10.3258 5.42418C10.6775 5.77581 10.875 6.25272 10.875 6.75C10.875 7.24728 10.6775 7.7242 10.3258 8.07583C9.97419 8.42746 9.49728 8.625 9 8.625Z" fill="#9B9B9B"/>
<path d="M9 1.5C6.0975 1.5 3.75 3.8475 3.75 6.75C3.75 10.6875 9 16.5 9 16.5C9 16.5 14.25 10.6875 14.25 6.75C14.25 3.8475 11.9025 1.5 9 1.5ZM5.25 6.75C5.25 4.68 6.93 3 9 3C11.07 3 12.75 4.68 12.75 6.75C12.75 8.91 10.59 12.1425 9 14.16C7.44 12.1575 5.25 8.8875 5.25 6.75Z" fill="#9B9B9B"/>
<path d="M9 8.625C10.0355 8.625 10.875 7.78553 10.875 6.75C10.875 5.71447 10.0355 4.875 9 4.875C7.96447 4.875 7.125 5.71447 7.125 6.75C7.125 7.78553 7.96447 8.625 9 8.625Z" fill="#9B9B9B"/>
</svg>
