<svg width="17" height="16" viewBox="0 0 17 16" fill="none" xmlns="http://www.w3.org/2000/svg">
<path d="M12.5395 15.5834C12.4057 15.5834 12.269 15.5664 12.1336 15.531L1.17962 12.5976C0.334613 12.3645 -0.169024 11.4905 0.0520147 10.6461L1.25616 6.02846C1.32984 5.74503 1.61957 5.5729 1.9043 5.6488C2.18769 5.72248 2.35836 6.01289 2.28405 6.29695L1.07978 10.9153C1.00547 11.2 1.17474 11.494 1.45814 11.5719L12.4057 14.5038C12.6869 14.5782 12.9773 14.411 13.051 14.1312L13.4249 12.6224C13.4959 12.3377 13.7834 12.1648 14.0681 12.2343C14.353 12.3051 14.5265 12.5927 14.4563 12.8774L14.0809 14.3933C13.8917 15.1109 13.2458 15.5834 12.5396 15.5834L12.5395 15.5834Z" fill="#E6A525"/>
<path d="M15.4063 11.3337H4.4268C3.54782 11.3337 2.83301 10.6189 2.83301 9.73991V1.59379C2.83301 0.714814 3.54782 0 4.4268 0H15.4063C16.2853 0 17.0001 0.714814 17.0001 1.59379V9.73991C17.0001 10.6189 16.2853 11.3337 15.4063 11.3337ZM4.4268 1.06253C4.13354 1.06253 3.89553 1.30053 3.89553 1.59379V9.73991C3.89553 10.0332 4.13354 10.2712 4.4268 10.2712H15.4063C15.6995 10.2712 15.9375 10.0332 15.9375 9.73991V1.59379C15.9375 1.30053 15.6995 1.06253 15.4063 1.06253H4.4268Z" fill="#E6A525"/>
<path d="M6.37457 4.95849C5.59325 4.95849 4.95783 4.32307 4.95783 3.54175C4.95783 2.76042 5.59325 2.125 6.37457 2.125C7.15589 2.125 7.79118 2.76042 7.79118 3.54175C7.79118 4.32307 7.15593 4.95849 6.37457 4.95849ZM6.37457 3.18753C6.179 3.18753 6.02035 3.34627 6.02035 3.54175C6.02035 3.73722 6.179 3.89596 6.37457 3.89596C6.57004 3.89596 6.72866 3.73722 6.72866 3.54175C6.72866 3.34627 6.57004 3.18753 6.37457 3.18753ZM3.37818 10.6111C3.24224 10.6111 3.10621 10.5593 3.00281 10.4553C2.79529 10.2478 2.79529 9.91119 3.00281 9.70366L6.20453 6.50198C6.68911 6.0174 7.47744 6.0174 7.96122 6.50198L8.81765 7.35837L11.4484 4.20051C11.6836 3.91854 12.0286 3.75565 12.3949 3.75359C12.7887 3.73164 13.1074 3.91074 13.3447 4.18922L16.8709 8.30329C17.0621 8.52572 17.0359 8.86151 16.8135 9.0527C16.5904 9.24402 16.2553 9.21779 16.064 8.99536L12.5365 4.8799C12.4897 4.82385 12.4324 4.8267 12.4005 4.81674C12.3701 4.81674 12.3112 4.82594 12.2645 4.88119L9.26112 8.48681C9.16539 8.60146 9.02597 8.67099 8.87718 8.67733C8.72558 8.68576 8.5825 8.62766 8.47758 8.5222L7.20975 7.25424C7.11973 7.16423 7.04539 7.16423 6.95541 7.25424L3.75369 10.4553C3.7045 10.5048 3.64599 10.5441 3.58154 10.5708C3.51708 10.5975 3.44796 10.6112 3.37818 10.6111Z" fill="#E6A525"/>
</svg>
