<svg width="18" height="18" viewBox="0 0 18 18" fill="none" xmlns="http://www.w3.org/2000/svg">
<path opacity="0.3" d="M10.425 5.6925C10.305 5.0025 9.705 4.5 9 4.5C8.295 4.5 7.695 5.0025 7.575 5.6925L7.335 7.5H10.665L10.425 5.6925ZM13.11 12.255C12.2175 11.7975 10.7775 11.25 9 11.25C7.2225 11.25 5.7825 11.7975 4.89 12.255C4.65 12.375 4.5 12.63 4.5 12.915V13.5H13.5V12.915C13.5 12.63 13.35 12.375 13.11 12.255Z" fill="#9B9B9B"/>
<path d="M13.7925 10.92C12.5325 10.275 10.8975 9.75 9.00005 9.75C7.10255 9.75 5.46755 10.275 4.20755 10.92C3.84159 11.1085 3.53502 11.3947 3.32187 11.7469C3.10872 12.099 2.99733 12.5034 3.00005 12.915V15H15V12.915C15 12.075 14.5425 11.3025 13.7925 10.92ZM13.5 13.5H4.50005V12.915C4.50005 12.63 4.65005 12.375 4.89005 12.255C5.78255 11.7975 7.22255 11.25 9.00005 11.25C10.7775 11.25 12.2175 11.7975 13.11 12.255C13.35 12.375 13.5 12.63 13.5 12.915V13.5ZM7.33505 9H10.665C11.5725 9 12.27 8.205 12.15 7.305L11.91 5.4675C11.6775 4.0425 10.44 3 9.00005 3C7.56005 3 6.32255 4.0425 6.09005 5.4675L5.85005 7.305C5.73005 8.205 6.42755 9 7.33505 9ZM7.57505 5.6925C7.69505 5.0025 8.29505 4.5 9.00005 4.5C9.70505 4.5 10.305 5.0025 10.425 5.6925L10.665 7.5H7.33505L7.57505 5.6925Z" fill="#9B9B9B"/>
</svg>
