<svg width="24" height="24" viewBox="0 0 24 24" fill="none" xmlns="http://www.w3.org/2000/svg">
<path fill-rule="evenodd" clip-rule="evenodd" d="M21.375 5.27255C21.375 3.81035 20.1896 2.625 18.7275 2.625H5.27255C3.81035 2.625 2.625 3.81035 2.625 5.27255V18.7275C2.625 20.1897 3.81035 21.375 5.27255 21.375H18.7275C20.1896 21.375 21.375 20.1897 21.375 18.7275V5.27255ZM18.1584 10.8027C16.9487 10.8162 15.8215 10.4505 14.8317 9.77318V14.528C14.8317 16.6413 13.3852 18.4566 11.3396 18.9307C8.54899 19.5674 6.18659 17.549 5.88863 15.1377C5.57705 12.7264 7.11492 10.6131 9.47203 10.1389C9.9326 10.0441 10.6254 10.0441 10.9828 10.1254V12.6722C10.8728 12.6451 10.7698 12.618 10.6615 12.6045C9.74027 12.4419 8.84808 12.9025 8.48231 13.7424C8.11657 14.5823 8.36137 15.5576 9.10643 16.1267C9.72954 16.6143 10.4209 16.682 11.1253 16.3569C11.8298 16.0454 12.2084 15.4764 12.2896 14.7042C12.3032 14.5959 12.3024 14.4739 12.3024 14.352V5.20795C12.3024 4.95059 12.3044 4.96181 12.5618 4.96181H14.5803C14.7293 4.96181 14.7835 4.98326 14.7971 5.15946C14.9054 6.73088 16.0984 8.06916 17.6292 8.27238C17.7918 8.29945 17.966 8.31019 18.1584 8.32371V10.8027Z" fill="white"/>
</svg>
