<svg width="18" height="18" viewBox="0 0 18 18" fill="none" xmlns="http://www.w3.org/2000/svg">
<path d="M9 12C10.2426 12 11.25 10.9926 11.25 9.75C11.25 8.50736 10.2426 7.5 9 7.5C7.75736 7.5 6.75 8.50736 6.75 9.75C6.75 10.9926 7.75736 12 9 12Z" stroke="#E6A525" stroke-width="1.5"/>
<path d="M1.5 10.023C1.5 7.72429 1.5 6.57528 2.06175 5.75028C2.30593 5.39178 2.61838 5.08493 2.98125 4.84728C3.52125 4.49253 4.19775 4.36578 5.2335 4.32078C5.72775 4.32078 6.153 3.95328 6.24975 3.47703C6.32369 3.12819 6.5158 2.81556 6.79361 2.592C7.07143 2.36843 7.41791 2.24764 7.7745 2.25003H10.2255C10.9665 2.25003 11.6047 2.76379 11.7502 3.47703C11.847 3.95328 12.2722 4.32078 12.7665 4.32078C13.8015 4.36578 14.478 4.49328 15.0187 4.84728C15.3825 5.08578 15.6952 5.39253 15.9382 5.75028C16.5 6.57528 16.5 7.72429 16.5 10.023C16.5 12.3218 16.5 13.47 15.9382 14.2958C15.6941 14.6543 15.3816 14.9611 15.0187 15.1988C14.178 15.75 13.0073 15.75 10.6665 15.75H7.3335C4.99275 15.75 3.822 15.75 2.98125 15.1988C2.61858 14.9608 2.30638 14.6537 2.0625 14.295C1.89955 14.0523 1.77956 13.7834 1.70775 13.5M14.25 7.50004H13.5" stroke="#E6A525" stroke-width="1.5" stroke-linecap="round"/>
</svg>
