<svg width="24" height="24" viewBox="0 0 24 24" fill="none" xmlns="http://www.w3.org/2000/svg">
<path d="M2 12.0002C2.0005 9.80776 2.72148 7.67627 4.05199 5.93375C5.38249 4.19123 7.24877 2.93424 9.3636 2.35623C11.4784 1.77823 13.7246 1.91124 15.7565 2.73481C17.7883 3.55838 19.4932 5.02685 20.6087 6.91422C21.7243 8.8016 22.1886 11.0033 21.9304 13.1804C21.6721 15.3576 20.7055 17.3895 19.1794 18.9635C17.6533 20.5375 15.6521 21.5664 13.484 21.8917C11.3159 22.2171 9.10092 21.8209 7.18 20.7642L3.292 21.9482C3.11858 22.001 2.93407 22.0057 2.75819 21.9617C2.58231 21.9178 2.42168 21.8269 2.2935 21.6987C2.16531 21.5705 2.07438 21.4098 2.03043 21.234C1.98648 21.0581 1.99117 20.8736 2.044 20.7002L3.228 16.8062C2.42153 15.3327 1.9992 13.6799 2 12.0002ZM8 11.0002C8 11.2654 8.10536 11.5197 8.29289 11.7073C8.48043 11.8948 8.73478 12.0002 9 12.0002H15C15.2652 12.0002 15.5196 11.8948 15.7071 11.7073C15.8946 11.5197 16 11.2654 16 11.0002C16 10.7349 15.8946 10.4806 15.7071 10.293C15.5196 10.1055 15.2652 10.0002 15 10.0002H9C8.73478 10.0002 8.48043 10.1055 8.29289 10.293C8.10536 10.4806 8 10.7349 8 11.0002ZM9 14.0002C8.73478 14.0002 8.48043 14.1055 8.29289 14.293C8.10536 14.4806 8 14.7349 8 15.0002C8 15.2654 8.10536 15.5197 8.29289 15.7073C8.48043 15.8948 8.73478 16.0002 9 16.0002H13C13.2652 16.0002 13.5196 15.8948 13.7071 15.7073C13.8946 15.5197 14 15.2654 14 15.0002C14 14.7349 13.8946 14.4806 13.7071 14.293C13.5196 14.1055 13.2652 14.0002 13 14.0002H9Z" fill="#9B9B9B"/>
</svg>
