<svg width="24" height="24" viewBox="0 0 24 24" fill="none" xmlns="http://www.w3.org/2000/svg">
<g clip-path="url(#clip0_113_14555)">
<path opacity="0.3" d="M11.5 4.5C18.428 4.5 22.758 12 19.294 18C18.5041 19.3681 17.368 20.5043 15.9998 21.2942C14.6317 22.0841 13.0798 22.5 11.5 22.5C4.57198 22.5 0.241979 15 3.70598 9C4.49587 7.63186 5.63198 6.49574 7.00011 5.70583C8.36824 4.91592 9.92019 4.50004 11.5 4.5Z" fill="#9B9B9B"/>
<path d="M6.86595 3.47036C6.99855 3.70004 7.03448 3.97298 6.96584 4.22916C6.89721 4.48533 6.72962 4.70374 6.49995 4.83636C5.45965 5.43973 4.53547 6.22404 3.77095 7.15236C3.68896 7.25795 3.58663 7.34604 3.47001 7.4114C3.35339 7.47677 3.22484 7.51808 3.09198 7.53291C2.95911 7.54774 2.82463 7.53577 2.69647 7.49772C2.56831 7.45967 2.44908 7.39631 2.34583 7.31138C2.24258 7.22646 2.15741 7.12169 2.09535 7.00328C2.03329 6.88487 1.99561 6.75521 1.98452 6.62198C1.97344 6.48875 1.98918 6.35466 2.03082 6.22762C2.07246 6.10058 2.13915 5.98318 2.22695 5.88236C3.14159 4.76769 4.24963 3.82699 5.49795 3.10536C5.61165 3.0395 5.73723 2.9967 5.86749 2.9794C5.99774 2.96211 6.13014 2.97065 6.25709 3.00455C6.38405 3.03845 6.50308 3.09703 6.60737 3.17696C6.71167 3.25689 6.7992 3.35659 6.86495 3.47036H6.86595ZM17.4999 3.10536C18.7485 3.82659 19.8569 4.76696 20.7719 5.88136C20.9316 6.087 21.0048 6.3468 20.9759 6.60554C20.947 6.86428 20.8184 7.10156 20.6173 7.26694C20.4163 7.43233 20.1586 7.51278 19.8992 7.49119C19.6397 7.46961 19.3989 7.34769 19.2279 7.15136C18.4649 6.22187 17.5404 5.43765 16.4989 4.83636C16.2694 4.70348 16.102 4.48487 16.0337 4.2286C15.9653 3.97233 16.0016 3.6994 16.1344 3.46986C16.2673 3.24031 16.4859 3.07295 16.7422 3.0046C16.9985 2.93624 17.2704 2.97248 17.4999 3.10536ZM11.4999 8.49936C11.255 8.49939 11.0186 8.58931 10.8356 8.75207C10.6525 8.91483 10.5356 9.13911 10.5069 9.38236L10.4999 9.49936V13.4854C10.4969 13.7074 10.5679 13.9254 10.7019 14.1024L10.7919 14.2064L12.8979 16.3114C13.0775 16.4926 13.3195 16.5984 13.5745 16.607C13.8295 16.6157 14.0781 16.5266 14.2695 16.3579C14.4609 16.1892 14.5806 15.9538 14.6041 15.6997C14.6277 15.4457 14.5532 15.1923 14.3959 14.9914L14.3119 14.8974L12.4999 13.0854V9.49936C12.4999 9.23414 12.3946 8.97979 12.2071 8.79225C12.0195 8.60471 11.7652 8.49936 11.4999 8.49936Z" fill="#9B9B9B"/>
</g>
<defs>
<clipPath id="clip0_113_14555">
<rect width="24" height="24" fill="white"/>
</clipPath>
</defs>
</svg>
