<svg width="27" height="27" viewBox="0 0 27 27" fill="none" xmlns="http://www.w3.org/2000/svg">
<path d="M26.6853 21.3325V24.9408C26.6853 25.6324 26.0525 26.2673 25.1446 26.3722C23.9844 26.5082 22.9974 25.8478 22.9974 25.0031V22.3812L22.8694 22.3529L3.68788 18.5661L1.37495 18.1097C0.565046 17.951 0 17.3983 0 16.769V3.67666C0 2.91136 0.82497 2.29061 1.84206 2.29061H7.39083L9.88834 0.411366C10.2349 0.150596 10.7095 0.00320435 11.1992 0.00320435H13.9341V2.77814H11.9602L9.45137 4.66589C9.10104 4.92382 8.63016 5.06838 8.14422 5.06838H3.68411V15.6948L22.8656 19.4816L25.3368 20.0031C26.1316 20.1704 26.6816 20.7174 26.6816 21.3382L26.6853 21.3325Z" fill="#22303D"/>
<path d="M24.8397 2.19104H19.419L17.0496 0.408162C16.6992 0.144557 16.2284 0 15.7424 0H13.5463V2.77493H14.9853L17.3547 4.55781C17.6975 4.82141 18.1646 4.96597 18.6543 4.96597H22.9976V14.8837C22.9976 15.6462 23.8188 16.2698 24.8397 16.2698C25.8605 16.2698 26.6817 15.6462 26.6817 14.8837V3.57992C26.6817 2.80895 25.853 2.19387 24.8397 2.19387V2.19104Z" fill="#22303D"/>
<path d="M14.4276 7.52545V10.4875L16.6727 8.79529C16.1604 8.18872 15.3656 7.72953 14.4276 7.52829V7.52545Z" fill="#E6A525"/>
<path d="M17.1852 11.0288C17.2492 10.8191 17.2831 10.598 17.2831 10.3712C17.2831 9.8497 17.1023 9.3565 16.7859 8.93134L14.0021 11.0288H17.1814H17.1852Z" fill="#E6A525"/>
<path d="M15.4071 12.8968C16.232 12.5141 16.8573 11.9075 17.1286 11.1904H13.177L15.4071 12.8968Z" fill="#E6A525"/>
<path d="M9.50041 9.71649C9.43637 9.92624 9.40247 10.1473 9.40247 10.3741C9.40247 10.9013 9.58328 11.3945 9.90348 11.8225L12.6797 9.71933H9.49664L9.50041 9.71649Z" fill="#E6A525"/>
<path d="M11.2522 7.86276C10.4385 8.24825 9.82446 8.84915 9.55701 9.55777H13.4973L11.2522 7.86276Z" fill="#E6A525"/>
<path d="M12.469 13.2652C12.7478 13.3134 13.0416 13.3389 13.3429 13.3389C14.021 13.3389 14.6614 13.2086 15.2189 12.9818L12.469 10.8758V13.2681V13.2652Z" fill="#E6A525"/>
<path d="M12.258 13.2227V10.2635L10.0166 11.9614C10.5289 12.5651 11.32 13.0215 12.258 13.2227Z" fill="#E6A525"/>
<path d="M14.213 7.48297C13.9343 7.43478 13.6404 7.40927 13.3391 7.40927C12.6497 7.40927 12.0018 7.54249 11.4368 7.77775L14.213 9.87525V7.48297Z" fill="#E6A525"/>
<path d="M17.6335 9.01071C17.3999 8.59405 17.0647 8.2199 16.6352 7.89677C16.2058 7.57364 15.7086 7.32138 15.1548 7.14564C14.5785 6.9614 13.972 6.8707 13.3429 6.8707C12.7138 6.8707 12.1035 6.96423 11.531 7.14564C10.9772 7.32138 10.48 7.57364 10.0505 7.89677C9.6211 8.2199 9.28584 8.59405 9.05229 9.01071C8.80743 9.44438 8.68689 9.90073 8.68689 10.3741C8.68689 10.8474 8.8112 11.3066 9.05229 11.7375C9.28584 12.1541 9.6211 12.5283 10.0505 12.8514C10.48 13.1745 10.9772 13.4268 11.531 13.6025C12.1073 13.7868 12.7138 13.8775 13.3429 13.8775C13.972 13.8775 14.5822 13.7839 15.1548 13.6025C15.7086 13.4268 16.2058 13.1745 16.6352 12.8514C17.0647 12.5283 17.3999 12.1541 17.6335 11.7375C17.8783 11.3038 17.9989 10.8474 17.9989 10.3741C17.9989 9.90073 17.8746 9.44155 17.6335 9.01071ZM13.3429 13.56C11.0036 13.56 9.10879 12.1343 9.10879 10.3741C9.10879 8.61389 11.0036 7.18816 13.3429 7.18816C15.6822 7.18816 17.577 8.61389 17.577 10.3741C17.577 12.1343 15.6822 13.56 13.3429 13.56Z" fill="#22303D"/>
</svg>
