<svg width="130" height="57" viewBox="0 0 130 57" fill="none" xmlns="http://www.w3.org/2000/svg">
<path d="M2.69656 29.0525C2.69656 29.9903 3.54367 30.755 4.58258 30.755H15.6349V33.1885H4.58258C2.05723 33.1885 0.000732422 31.3345 0.000732422 29.0525V19.0758H2.69656V21.995H15.6349V24.4285H2.69656V29.0525Z" fill="#E6A525"/>
<path d="M34.3112 23.2935V29.1343C34.3112 31.4163 32.2547 33.2702 29.7294 33.2702H21.2157C19.8145 33.2702 18.677 32.241 18.677 30.9786V27.2899C18.677 26.0275 19.8171 24.9984 21.2157 24.9984H29.4603V27.4318H21.3728V30.8392H29.7294C30.7709 30.8392 31.6154 30.0745 31.6154 29.1343V23.2935C31.6154 22.3533 30.7683 21.591 29.7294 21.591H18.677V19.1575H29.7294C32.2574 19.1575 34.3112 21.0139 34.3112 23.2935Z" fill="#E6A525"/>
<path d="M40.2757 23.2117C40.2757 24.1519 41.1228 24.9166 42.1617 24.9166H48.6322C51.1602 24.9166 53.214 26.773 53.214 29.0525C53.214 31.3321 51.1575 33.1885 48.6322 33.1885H37.5798V30.755H48.6322C49.6738 30.755 50.5182 29.9903 50.5182 29.0525C50.5182 28.1147 49.6711 27.3477 48.6322 27.3477H42.1617C39.6337 27.3477 37.5798 25.4913 37.5798 23.2117C37.5798 20.9322 39.6363 19.0758 42.1617 19.0758H53.214V21.5093H42.1617C41.1201 21.5093 40.2757 22.2739 40.2757 23.2117Z" fill="#E6A525"/>
<path d="M92.3996 24.9959V21.5886H84.043C83.0014 21.5886 82.157 22.3533 82.157 23.2911V29.1319C82.157 30.0721 83.0041 30.8368 84.043 30.8368H95.0954V33.2702H84.043C81.515 33.2702 79.4612 31.4139 79.4612 29.1343V23.2935C79.4612 21.0115 81.5177 19.1575 84.043 19.1575H92.5567C93.9579 19.1575 95.0954 20.1867 95.0954 21.4491V25.1378C95.0954 26.4026 93.9553 27.4294 92.5567 27.4294H84.3121V24.9959H92.3996Z" fill="#E6A525"/>
<path d="M111.957 18.9964V21.4299H103.369C102.328 21.4299 101.483 22.1946 101.483 23.1324V33.2678H98.7874V23.1324C98.7874 20.8504 100.844 18.9964 103.369 18.9964H111.957Z" fill="#E6A525"/>
<path d="M130 23.2935V29.1343C130 31.4163 127.943 33.2702 125.418 33.2702H116.904C115.503 33.2702 114.366 32.241 114.366 30.9786V27.2899C114.366 26.0275 115.506 24.9984 116.904 24.9984H125.149V27.4318H117.062V30.8392H125.418C126.46 30.8392 127.304 30.0745 127.304 29.1343V23.2935C127.304 22.3533 126.457 21.591 125.418 21.591H114.366V19.1575H125.418C127.946 19.1575 130 21.0139 130 23.2935Z" fill="#E6A525"/>
<path d="M75.6464 18.0974V21.1585C75.6464 21.7452 75.1989 22.2839 74.5569 22.3728C73.7364 22.4883 73.0385 21.928 73.0385 21.2114V18.9871L72.9479 18.9631L59.3836 15.7505L57.7479 15.3634C57.1752 15.2287 56.7756 14.7598 56.7756 14.226V3.1191C56.7756 2.46986 57.359 1.94325 58.0783 1.94325H62.0021L63.7683 0.348988C64.0133 0.127764 64.349 0.00272369 64.6953 0.00272369H66.6293V2.35684H65.2334L63.4593 3.95831C63.2115 4.17713 62.8785 4.29977 62.5349 4.29977H59.3809V13.3147L72.9453 16.5272L74.6928 16.9697C75.2548 17.1115 75.6438 17.5756 75.6438 18.1022L75.6464 18.0974Z" fill="#22303D"/>
<path d="M74.3412 1.85877H70.5079L68.8324 0.346264C68.5846 0.122635 68.2517 0 67.908 0H66.355V2.35412H67.3726L69.0481 3.86662C69.2906 4.09024 69.6209 4.21288 69.9672 4.21288H73.0386V12.6266C73.0386 13.2735 73.6193 13.8025 74.3412 13.8025C75.0631 13.8025 75.6439 13.2735 75.6439 12.6266V3.03702C75.6439 2.38297 75.0578 1.86117 74.3412 1.86117V1.85877Z" fill="#22303D"/>
<path d="M66.9783 6.38424V8.89706L68.5659 7.46151C68.2037 6.94692 67.6416 6.55738 66.9783 6.38665V6.38424Z" fill="#E6A525"/>
<path d="M68.9282 9.35634C68.9735 9.1784 68.9975 8.99084 68.9975 8.79847C68.9975 8.35603 68.8696 7.93762 68.6458 7.57693L66.6772 9.35634H68.9255H68.9282Z" fill="#E6A525"/>
<path d="M67.671 10.941C68.2544 10.6164 68.6966 10.1018 68.8884 9.49341H66.094L67.671 10.941Z" fill="#E6A525"/>
<path d="M63.4941 8.24301C63.4488 8.42095 63.4248 8.60851 63.4248 8.80088C63.4248 9.24814 63.5527 9.66654 63.7791 10.0296L65.7424 8.24542H63.4914L63.4941 8.24301Z" fill="#E6A525"/>
<path d="M64.7327 6.67039C64.1573 6.99742 63.7231 7.5072 63.5339 8.10835H66.3203L64.7327 6.67039Z" fill="#E6A525"/>
<path d="M65.593 11.2536C65.7901 11.2945 65.9979 11.3161 66.211 11.3161C66.6905 11.3161 67.1434 11.2055 67.5376 11.0131L65.593 9.22649V11.256V11.2536Z" fill="#E6A525"/>
<path d="M65.4439 11.2175V8.7071L63.8589 10.1475C64.2212 10.6596 64.7806 11.0468 65.4439 11.2175Z" fill="#E6A525"/>
<path d="M66.8265 6.34818C66.6294 6.3073 66.4216 6.28566 66.2085 6.28566C65.721 6.28566 65.2629 6.39867 64.8633 6.59826L66.8265 8.37767V6.34818Z" fill="#E6A525"/>
<path d="M69.2454 7.64426C69.0802 7.29079 68.8431 6.97338 68.5395 6.69925C68.2358 6.42513 67.8841 6.21111 67.4926 6.06203C67.085 5.90573 66.6561 5.82878 66.2112 5.82878C65.7664 5.82878 65.3348 5.90813 64.9299 6.06203C64.5383 6.21111 64.1867 6.42513 63.883 6.69925C63.5793 6.97338 63.3423 7.29079 63.1771 7.64426C63.0039 8.01217 62.9187 8.39931 62.9187 8.80088C62.9187 9.20245 63.0066 9.592 63.1771 9.9575C63.3423 10.311 63.5793 10.6284 63.883 10.9025C64.1867 11.1766 64.5383 11.3906 64.9299 11.5397C65.3375 11.696 65.7664 11.773 66.2112 11.773C66.6561 11.773 67.0876 11.6936 67.4926 11.5397C67.8841 11.3906 68.2358 11.1766 68.5395 10.9025C68.8431 10.6284 69.0802 10.311 69.2454 9.9575C69.4185 9.58959 69.5038 9.20245 69.5038 8.80088C69.5038 8.39931 69.4159 8.00976 69.2454 7.64426ZM66.2112 11.5037C64.557 11.5037 63.2171 10.2941 63.2171 8.80088C63.2171 7.30762 64.557 6.0981 66.2112 6.0981C67.8655 6.0981 69.2054 7.30762 69.2054 8.80088C69.2054 10.2941 67.8655 11.5037 66.2112 11.5037Z" fill="#22303D"/>
<path d="M75.6465 26.2319V31.4643C75.6465 31.8515 75.5319 32.2434 75.2762 32.5536C74.6475 33.3111 73.5393 33.4626 72.7189 33.0177L66.2137 29.495L59.7086 33.0177C59.4022 33.1836 59.0586 33.2654 58.7123 33.2654C58.1262 33.2654 57.5428 33.0273 57.1433 32.5512C56.8929 32.2507 56.7783 31.8731 56.7783 31.4956V19.1527H59.4741V30.3053L65.2174 27.1938C65.8301 26.8619 66.5947 26.8619 67.2073 27.1938L72.9506 30.3053V26.2295C72.9506 25.5586 73.5553 25.0128 74.2985 25.0128C75.0418 25.0128 75.6465 25.5586 75.6465 26.2295V26.2319Z" fill="#E6A525"/>
<path d="M7.12669 42.8935C6.33286 42.5472 5.45378 42.4149 4.4868 42.4943C3.53847 42.5737 2.70734 42.8502 1.99076 43.3215C1.27419 43.7952 0.746741 44.4156 0.403102 45.1827C0.0594641 45.9497 -0.0630736 46.7841 0.0301616 47.6883C0.264581 50.1939 1.43668 51.6246 3.54912 51.9829H8.91148L9.6174 47.1785C9.76391 46.1541 9.58543 45.2692 9.07664 44.5262C8.5705 43.7832 7.92052 43.2397 7.12669 42.8935ZM6.64453 47.2073L6.33286 49.5542L5.86935 49.5999C4.96896 49.6721 4.28435 49.5326 3.81817 49.1767C3.352 48.8208 3.07762 48.2533 2.9977 47.4694C2.93644 46.9597 2.97639 46.5148 3.11491 46.1373C3.25343 45.7574 3.45855 45.4616 3.73027 45.25C4.00198 45.0384 4.34029 44.9157 4.74253 44.8869C5.35256 44.8388 5.8507 45.0095 6.2343 45.4015C6.61789 45.7934 6.75375 46.3946 6.6472 47.2073H6.64453Z" fill="#22303D"/>
<path d="M3.11482 41.5926C3.53038 41.5926 3.89 41.4603 4.19368 41.1958C4.49736 40.9313 4.64654 40.6115 4.64654 40.2364C4.64654 39.8612 4.49736 39.539 4.19901 39.2721C3.90065 39.0052 3.53837 38.8705 3.11482 38.8705C2.69126 38.8705 2.33963 39.0052 2.04128 39.2721C1.74293 39.539 1.59375 39.8612 1.59375 40.2364C1.59375 40.6115 1.74293 40.9241 2.04128 41.191C2.33963 41.4579 2.69925 41.5926 3.11482 41.5926Z" fill="#22303D"/>
<path d="M6.75373 41.5926C7.16929 41.5926 7.52892 41.4603 7.8326 41.1958C8.13628 40.9313 8.28545 40.6115 8.28545 40.2364C8.28545 39.8612 8.13628 39.539 7.83792 39.2721C7.53957 39.0052 7.17729 38.8705 6.75373 38.8705C6.33018 38.8705 5.97855 39.0052 5.68019 39.2721C5.38184 39.539 5.23267 39.8612 5.23267 40.2364C5.23267 40.6115 5.38184 40.9241 5.68019 41.191C5.97855 41.4579 6.33817 41.5926 6.75373 41.5926Z" fill="#22303D"/>
<path d="M52.9718 52.8486C52.5562 52.8486 52.1966 52.9808 51.8982 53.2477C51.5999 53.5146 51.4507 53.8369 51.4507 54.212C51.4507 54.5871 51.5999 54.8997 51.8982 55.1666C52.1966 55.4335 52.5562 55.5658 52.9718 55.5658C53.3873 55.5658 53.7469 55.4335 54.0506 55.1714C54.3516 54.9069 54.5035 54.5871 54.5035 54.212C54.5035 53.8369 54.3543 53.5146 54.0559 53.2477C53.7576 52.9808 53.3953 52.8486 52.9718 52.8486Z" fill="#22303D"/>
<path d="M56.6106 52.8486C56.1951 52.8486 55.8355 52.9808 55.5371 53.2477C55.2388 53.5146 55.0869 53.8369 55.0869 54.212C55.0869 54.5871 55.2361 54.8997 55.5371 55.1666C55.8355 55.4335 56.1951 55.5658 56.6106 55.5658C57.0262 55.5658 57.3858 55.4335 57.6895 55.1714C57.9905 54.9069 58.1424 54.5871 58.1424 54.212C58.1424 53.8369 57.9932 53.5146 57.6948 53.2477C57.3965 52.9808 57.0342 52.8486 56.6106 52.8486Z" fill="#22303D"/>
<path d="M55.1482 47.3805C55.1482 48.1932 54.9804 48.7607 54.6447 49.0853C54.3091 49.41 53.422 49.5711 51.9835 49.5711H17.5291V42.6386H14.4843V51.4467C14.4843 52.2835 14.2979 52.8822 13.9249 53.2429C13.552 53.6036 12.9686 53.784 12.1748 53.784H10.2195V56.3136H12.3053C13.9995 56.1982 15.2808 55.7509 16.1546 54.967C16.9537 54.2504 17.3799 53.2525 17.4359 51.9733H53.2888C54.8552 51.9733 56.0512 51.5813 56.877 50.795C57.7028 50.0087 58.1504 48.8737 58.2169 47.3877V42.6386H55.1429V47.3781L55.1482 47.3805Z" fill="#22303D"/>
<path d="M124.829 41.4098C125.245 41.4098 125.605 41.2776 125.908 41.0155C126.212 40.751 126.361 40.4311 126.361 40.056C126.361 39.6809 126.212 39.3587 125.914 39.0918C125.615 38.8249 125.253 38.6926 124.829 38.6926C124.406 38.6926 124.054 38.8249 123.756 39.0918C123.458 39.3587 123.308 39.6809 123.308 40.056C123.308 40.4311 123.458 40.7461 123.756 41.0131C124.054 41.28 124.414 41.4122 124.829 41.4122V41.4098Z" fill="#22303D"/>
<path d="M129.553 39.0894C129.254 38.8225 128.892 38.6902 128.468 38.6902C128.045 38.6902 127.693 38.8225 127.395 39.0894C127.096 39.3563 126.947 39.6785 126.947 40.0536C126.947 40.4287 127.096 40.7437 127.395 41.0107C127.693 41.2776 128.053 41.4098 128.468 41.4098C128.884 41.4098 129.244 41.2776 129.547 41.0155C129.851 40.751 130 40.4311 130 40.056C130 39.6809 129.851 39.3587 129.553 39.0918V39.0894Z" fill="#22303D"/>
<path d="M125.525 47.3805C125.525 48.1932 125.357 48.7607 125.021 49.0853C124.686 49.41 123.799 49.5711 122.36 49.5711H121.694C121.191 49.5711 120.778 49.4869 120.456 49.3162C120.623 48.8497 120.709 48.3279 120.709 47.7508C120.709 46.4475 120.261 45.351 119.363 44.4661C118.466 43.5812 117.192 43.2782 115.538 43.5547L108.894 45.0191V43.5451H105.86V49.5687H70.5507V47.431C70.5507 46.4234 70.3429 45.5361 69.93 44.7643C69.5171 43.9948 68.9311 43.4032 68.1719 42.9945C67.4127 42.5857 66.5496 42.3789 65.5826 42.3789C64.6156 42.3789 63.7738 42.5833 63.0173 42.9945C62.2608 43.4032 61.6721 43.9707 61.2485 44.6969C60.8249 45.4231 60.6145 46.2383 60.6145 47.1496C60.6145 48.7391 61.0887 49.939 62.0343 50.7517C62.9827 51.5645 64.3759 51.9709 66.2166 51.9709H67.3354C67.2475 52.346 66.9092 52.7187 66.3178 53.089C65.7265 53.4593 64.8421 53.6445 63.6673 53.6445H60.7344V56.1381H63.638C65.9555 56.1381 67.6897 55.6259 68.8405 54.6015C69.5784 53.9403 70.0792 53.065 70.3429 51.9709H115.57C116.827 51.9709 117.861 51.7593 118.676 51.3337C118.724 51.3649 118.769 51.3914 118.817 51.4154C119.502 51.7857 120.32 51.9709 121.265 51.9709H123.673C125.24 51.9709 126.436 51.5789 127.262 50.7926C128.087 50.0063 128.535 48.8713 128.602 47.3853V42.6362H125.527V47.3757L125.525 47.3805ZM66.2166 49.5735C65.2949 49.5735 64.6263 49.3811 64.2107 48.9964C63.7952 48.6116 63.5874 47.9961 63.5874 47.1544C63.5874 46.6687 63.6753 46.2479 63.8538 45.8896C64.0322 45.5313 64.2693 45.2596 64.5703 45.0696C64.8687 44.8821 65.207 44.7883 65.5826 44.7883C66.2139 44.7883 66.7041 45.0071 67.0557 45.4424C67.4047 45.88 67.5805 46.6519 67.5805 47.7628L67.5912 49.5735H66.2193H66.2166ZM117.23 49.1142C116.894 49.4196 116.34 49.5735 115.567 49.5735H108.833V47.6618L115.738 46.1782C116.422 46.0459 116.929 46.1253 117.251 46.4186C117.573 46.712 117.736 47.1568 117.736 47.7508C117.736 48.3447 117.568 48.804 117.232 49.1118L117.23 49.1142Z" fill="#22303D"/>
</svg>
