<svg width="196" height="95" viewBox="0 0 196 95" fill="none" xmlns="http://www.w3.org/2000/svg">
<path d="M4.06569 48.5246C4.06569 50.091 5.34287 51.3681 6.90921 51.3681H23.5727V55.4326H6.90921C3.10179 55.4326 0.0012207 52.3361 0.0012207 48.5246V31.8611H4.06569V36.7368H23.5727V40.8013H4.06569V48.5246Z" fill="#E6A525"/>
<path d="M51.7309 38.9056V48.6611C51.7309 52.4725 48.6304 55.5691 44.8229 55.5691H31.9869C29.8744 55.5691 28.1594 53.8501 28.1594 51.7416V45.5806C28.1594 43.4721 29.8784 41.7531 31.9869 41.7531H44.4173V45.8176H32.2239V51.5086H44.8229C46.3933 51.5086 47.6665 50.2314 47.6665 48.6611V38.9056C47.6665 37.3352 46.3893 36.062 44.8229 36.062H28.1594V31.9976H44.8229C48.6344 31.9976 51.7309 35.0981 51.7309 38.9056Z" fill="#E6A525"/>
<path d="M60.7234 38.7691C60.7234 40.3394 62.0006 41.6166 63.5669 41.6166H73.3225C77.1339 41.6166 80.2304 44.7172 80.2304 48.5246C80.2304 52.332 77.1299 55.4326 73.3225 55.4326H56.6589V51.3681H73.3225C74.8928 51.3681 76.166 50.091 76.166 48.5246C76.166 46.9583 74.8888 45.6771 73.3225 45.6771H63.5669C59.7555 45.6771 56.6589 42.5765 56.6589 38.7691C56.6589 34.9616 59.7595 31.8611 63.5669 31.8611H80.2304V35.9256H63.5669C61.9966 35.9256 60.7234 37.2027 60.7234 38.7691Z" fill="#E6A525"/>
<path d="M139.31 41.7491V36.058H126.711C125.141 36.058 123.868 37.3352 123.868 38.9015V48.6571C123.868 50.2274 125.145 51.5046 126.711 51.5046H143.375V55.5691H126.711C122.9 55.5691 119.803 52.4685 119.803 48.6611V38.9056C119.803 35.0941 122.904 31.9976 126.711 31.9976H139.547C141.66 31.9976 143.375 33.7165 143.375 35.8251V41.986C143.375 44.0986 141.656 45.8135 139.547 45.8135H127.117V41.7491H139.31Z" fill="#E6A525"/>
<path d="M168.798 31.7285V35.793H155.849C154.279 35.793 153.006 37.0702 153.006 38.6365V55.5651H148.941V38.6365C148.941 34.8251 152.042 31.7285 155.849 31.7285H168.798Z" fill="#E6A525"/>
<path d="M196 38.9056V48.6611C196 52.4725 192.899 55.5691 189.092 55.5691H176.256C174.143 55.5691 172.428 53.8501 172.428 51.7416V45.5806C172.428 43.4721 174.147 41.7531 176.256 41.7531H188.686V45.8176H176.493V51.5086H189.092C190.662 51.5086 191.935 50.2314 191.935 48.6611V38.9056C191.935 37.3352 190.658 36.062 189.092 36.062H172.428V31.9976H189.092C192.903 31.9976 196 35.0981 196 38.9056Z" fill="#E6A525"/>
<path d="M114.051 30.2269V35.3396C114.051 36.3195 113.377 37.2192 112.409 37.3678C111.172 37.5606 110.119 36.6248 110.119 35.4279V31.7129L109.983 31.6727L89.532 26.307L87.066 25.6604C86.2025 25.4354 85.6001 24.6523 85.6001 23.7607V5.20949C85.6001 4.12509 86.4797 3.24553 87.5641 3.24553H93.48L96.1428 0.582738C96.5123 0.213241 97.0184 0.00439453 97.5405 0.00439453H100.456V3.93633H98.3518L95.6769 6.61117C95.3034 6.97665 94.8014 7.18148 94.2833 7.18148H89.528V22.2385L109.979 27.6042L112.614 28.3432C113.461 28.5802 114.047 29.3553 114.047 30.2349L114.051 30.2269Z" fill="white"/>
<path d="M112.084 3.10458H106.304L103.778 0.578344C103.404 0.20483 102.902 0 102.384 0H100.043V3.93193H101.577L104.103 6.45817C104.469 6.83168 104.967 7.03651 105.489 7.03651H110.12V21.0895C110.12 22.1698 110.995 23.0534 112.084 23.0534C113.172 23.0534 114.047 22.1698 114.047 21.0895V5.07256C114.047 3.98013 113.164 3.1086 112.084 3.1086V3.10458Z" fill="white"/>
<path d="M100.982 10.6631V14.8601L103.376 12.4624C102.83 11.6029 101.982 10.9523 100.982 10.6671V10.6631Z" fill="#E6A525"/>
<path d="M103.922 15.6273C103.991 15.3301 104.027 15.0168 104.027 14.6955C104.027 13.9565 103.834 13.2577 103.497 12.6553L100.529 15.6273H103.918H103.922Z" fill="#E6A525"/>
<path d="M102.027 18.274C102.906 17.7318 103.573 16.8723 103.862 15.8562H99.6492L102.027 18.274Z" fill="#E6A525"/>
<path d="M95.7292 13.7676C95.6609 14.0648 95.6248 14.3781 95.6248 14.6994C95.6248 15.4464 95.8175 16.1452 96.1589 16.7517L99.1189 13.7716H95.7252L95.7292 13.7676Z" fill="#E6A525"/>
<path d="M97.5966 11.1411C96.7291 11.6873 96.0745 12.5388 95.7893 13.5428H99.9903L97.5966 11.1411Z" fill="#E6A525"/>
<path d="M98.8938 18.7961C99.191 18.8644 99.5043 18.9005 99.8256 18.9005C100.549 18.9005 101.231 18.7158 101.826 18.3945L98.8938 15.4104V18.8001V18.7961Z" fill="#E6A525"/>
<path d="M98.669 18.7357V14.5427L96.2793 16.9485C96.8255 17.8039 97.6689 18.4506 98.669 18.7357Z" fill="#E6A525"/>
<path d="M100.753 10.603C100.456 10.5347 100.143 10.4985 99.8217 10.4985C99.0867 10.4985 98.3959 10.6873 97.7935 11.0207L100.753 13.9927V10.603Z" fill="#E6A525"/>
<path d="M104.4 12.7676C104.151 12.1772 103.794 11.6471 103.336 11.1892C102.878 10.7314 102.348 10.3739 101.758 10.1249C101.143 9.86387 100.497 9.73535 99.8259 9.73535C99.1552 9.73535 98.5046 9.86789 97.8941 10.1249C97.3037 10.3739 96.7736 10.7314 96.3157 11.1892C95.8579 11.6471 95.5004 12.1772 95.2514 12.7676C94.9903 13.3821 94.8618 14.0287 94.8618 14.6995C94.8618 15.3702 94.9944 16.0208 95.2514 16.6313C95.5004 17.2217 95.8579 17.7518 96.3157 18.2097C96.7736 18.6675 97.3037 19.025 97.8941 19.274C98.5086 19.5351 99.1552 19.6636 99.8259 19.6636C100.497 19.6636 101.147 19.531 101.758 19.274C102.348 19.025 102.878 18.6675 103.336 18.2097C103.794 17.7518 104.151 17.2217 104.4 16.6313C104.662 16.0168 104.79 15.3702 104.79 14.6995C104.79 14.0287 104.658 13.3781 104.4 12.7676ZM99.8259 19.2138C97.3318 19.2138 95.3116 17.1936 95.3116 14.6995C95.3116 12.2054 97.3318 10.1852 99.8259 10.1852C102.32 10.1852 104.34 12.2054 104.34 14.6995C104.34 17.1936 102.32 19.2138 99.8259 19.2138Z" fill="white"/>
<path d="M114.052 43.8137V52.5531C114.052 53.1997 113.879 53.8543 113.493 54.3724C112.545 55.6376 110.875 55.8906 109.638 55.1476L99.8299 49.2637L90.0222 55.1476C89.5603 55.4247 89.0422 55.5613 88.5201 55.5613C87.6365 55.5613 86.7569 55.1637 86.1545 54.3684C85.7769 53.8664 85.6042 53.2358 85.6042 52.6053V31.9897H89.6687V50.6172L98.3278 45.4202C99.2516 44.8659 100.404 44.8659 101.328 45.4202L109.987 50.6172V43.8096C109.987 42.6891 110.899 41.7774 112.019 41.7774C113.14 41.7774 114.052 42.6891 114.052 43.8096V43.8137Z" fill="#E6A525"/>
<path d="M10.7448 71.6422C9.54798 71.0638 8.22261 70.8429 6.7647 70.9755C5.33491 71.108 4.08183 71.5699 3.00145 72.3571C1.92107 73.1483 1.12585 74.1845 0.607753 75.4657C0.0896533 76.7469 -0.0950953 78.1405 0.0454743 79.6506C0.398906 83.8356 2.16607 86.2253 5.35097 86.8237H13.4357L14.5 78.7992C14.7209 77.0883 14.4519 75.6103 13.6847 74.3692C12.9217 73.1282 11.9417 72.2205 10.7448 71.6422ZM10.0179 78.8474L9.54798 82.7673L8.84915 82.8436C7.49165 82.9641 6.45947 82.7311 5.75662 82.1367C5.05377 81.5423 4.64009 80.5945 4.5196 79.2852C4.42723 78.4337 4.48747 77.6907 4.69632 77.0601C4.90517 76.4256 5.21442 75.9316 5.62408 75.5781C6.03374 75.2247 6.54381 75.0199 7.15026 74.9717C8.06999 74.8913 8.82103 75.1765 9.39938 75.8312C9.97772 76.4858 10.1826 77.4899 10.0219 78.8474H10.0179Z" fill="white"/>
<path d="M4.69637 69.4695C5.32291 69.4695 5.8651 69.2486 6.32296 68.8068C6.78082 68.365 7.00573 67.8309 7.00573 67.2043C7.00573 66.5778 6.78082 66.0396 6.33099 65.5938C5.88117 65.148 5.33496 64.9231 4.69637 64.9231C4.05778 64.9231 3.52763 65.148 3.07781 65.5938C2.62799 66.0396 2.40308 66.5778 2.40308 67.2043C2.40308 67.8309 2.62799 68.353 3.07781 68.7988C3.52763 69.2446 4.06983 69.4695 4.69637 69.4695Z" fill="white"/>
<path d="M10.1825 69.4695C10.809 69.4695 11.3512 69.2486 11.809 68.8068C12.2669 68.365 12.4918 67.8309 12.4918 67.2043C12.4918 66.5778 12.2669 66.0396 11.8171 65.5938C11.3673 65.148 10.821 64.9231 10.1825 64.9231C9.54387 64.9231 9.01372 65.148 8.56389 65.5938C8.11407 66.0396 7.88916 66.5778 7.88916 67.2043C7.88916 67.8309 8.11407 68.353 8.56389 68.7988C9.01372 69.2446 9.55591 69.4695 10.1825 69.4695Z" fill="white"/>
<path d="M79.8648 88.2695C79.2383 88.2695 78.6961 88.4904 78.2463 88.9362C77.7964 89.382 77.5715 89.9202 77.5715 90.5468C77.5715 91.1733 77.7964 91.6954 78.2463 92.1412C78.6961 92.587 79.2383 92.8079 79.8648 92.8079C80.4914 92.8079 81.0336 92.587 81.4914 92.1493C81.9453 91.7075 82.1742 91.1733 82.1742 90.5468C82.1742 89.9202 81.9493 89.382 81.4994 88.9362C81.0496 88.4904 80.5034 88.2695 79.8648 88.2695Z" fill="white"/>
<path d="M85.351 88.2695C84.7245 88.2695 84.1823 88.4904 83.7325 88.9362C83.2826 89.382 83.0537 89.9202 83.0537 90.5468C83.0537 91.1733 83.2786 91.6954 83.7325 92.1412C84.1823 92.587 84.7245 92.8079 85.351 92.8079C85.9776 92.8079 86.5198 92.587 86.9776 92.1493C87.4315 91.7075 87.6604 91.1733 87.6604 90.5468C87.6604 89.9202 87.4355 89.382 86.9856 88.9362C86.5358 88.4904 85.9896 88.2695 85.351 88.2695Z" fill="white"/>
<path d="M83.1462 79.1366C83.1462 80.4941 82.8932 81.442 82.3871 81.9842C81.8811 82.5264 80.5437 82.7955 78.3749 82.7955H26.4284V71.2166H21.8378V85.9282C21.8378 87.3258 21.5566 88.3259 20.9944 88.9283C20.4321 89.5308 19.5525 89.832 18.3557 89.832H15.4077V94.0571H18.5525C21.1068 93.8643 23.0386 93.1173 24.356 91.808C25.5609 90.6111 26.2035 88.9444 26.2878 86.8077H80.3428C82.7044 86.8077 84.5077 86.1531 85.7528 84.8398C86.9978 83.5264 87.6725 81.6308 87.7729 79.1487V71.2166H83.1382V79.1326L83.1462 79.1366Z" fill="white"/>
<path d="M188.204 69.1641C188.831 69.1641 189.373 68.9432 189.831 68.5055C190.289 68.0637 190.514 67.5295 190.514 66.903C190.514 66.2764 190.289 65.7382 189.839 65.2924C189.389 64.8466 188.843 64.6257 188.204 64.6257C187.566 64.6257 187.035 64.8466 186.586 65.2924C186.136 65.7382 185.911 66.2764 185.911 66.903C185.911 67.5295 186.136 68.0556 186.586 68.5014C187.035 68.9472 187.578 69.1681 188.204 69.1681V69.1641Z" fill="white"/>
<path d="M195.325 65.2885C194.875 64.8427 194.329 64.6218 193.69 64.6218C193.052 64.6218 192.522 64.8427 192.072 65.2885C191.622 65.7343 191.397 66.2725 191.397 66.8991C191.397 67.5256 191.622 68.0517 192.072 68.4975C192.522 68.9433 193.064 69.1642 193.69 69.1642C194.317 69.1642 194.859 68.9433 195.317 68.5056C195.775 68.0638 196 67.5296 196 66.9031C196 66.2765 195.775 65.7384 195.325 65.2925V65.2885Z" fill="white"/>
<path d="M189.252 79.1366C189.252 80.4941 188.999 81.4419 188.493 81.9841C187.987 82.5263 186.649 82.7954 184.481 82.7954H183.477C182.718 82.7954 182.095 82.6548 181.609 82.3697C181.862 81.5905 181.991 80.719 181.991 79.7551C181.991 77.5783 181.316 75.7468 179.962 74.2688C178.609 72.7908 176.689 72.2848 174.195 72.7467L164.178 75.1926V72.7306H159.604V82.7914H106.368V79.2209C106.368 77.5381 106.055 76.0561 105.432 74.7669C104.81 73.4817 103.926 72.4936 102.782 71.8109C101.637 71.1281 100.336 70.7827 98.8778 70.7827C97.4199 70.7827 96.1508 71.1241 95.0101 71.8109C93.8695 72.4936 92.9819 73.4415 92.3433 74.6544C91.7047 75.8673 91.3875 77.2288 91.3875 78.751C91.3875 81.4058 92.1023 83.4099 93.5281 84.7674C94.9579 86.1249 97.0584 86.8036 99.8337 86.8036H101.521C101.388 87.4302 100.878 88.0527 99.9863 88.6712C99.0947 89.2897 97.7613 89.599 95.9901 89.599H91.5682V93.7638H95.9459C99.4401 93.7638 102.055 92.9084 103.79 91.1974C104.902 90.093 105.657 88.631 106.055 86.8036H174.243C176.139 86.8036 177.697 86.4502 178.926 85.7393C178.998 85.7915 179.067 85.8357 179.139 85.8759C180.171 86.4944 181.404 86.8036 182.83 86.8036H186.461C188.822 86.8036 190.626 86.149 191.871 84.8357C193.116 83.5223 193.79 81.6267 193.891 79.1446V71.2125H189.256V79.1285L189.252 79.1366ZM99.8337 82.7994C98.4441 82.7994 97.436 82.4781 96.8094 81.8355C96.1829 81.1929 95.8696 80.1647 95.8696 78.759C95.8696 77.9478 96.0022 77.2449 96.2712 76.6465C96.5403 76.048 96.8978 75.5942 97.3516 75.2769C97.8014 74.9637 98.3115 74.807 98.8778 74.807C99.8297 74.807 100.569 75.1725 101.099 75.8994C101.625 76.6304 101.89 77.9196 101.89 79.7752L101.906 82.7994H99.8377H99.8337ZM176.745 82.0323C176.239 82.5424 175.404 82.7994 174.239 82.7994H164.086V79.6065L174.496 77.1284C175.528 76.9075 176.292 77.0401 176.777 77.5301C177.263 78.02 177.508 78.7631 177.508 79.7551C177.508 80.7471 177.255 81.5142 176.749 82.0283L176.745 82.0323Z" fill="white"/>
</svg>
